<svg xmlns="http://www.w3.org/2000/svg" viewBox="0 0 296 64"><defs><style>.cls-1{fill:#fafafa;}</style></defs><title>lineage_logo_strip_teal_296x64</title><g id="logo_-_strip" data-name="logo - strip"><path class="cls-1" d="M95.7,42.45a1.65,1.65,0,0,1-1.7-1.7V21.55h4.19V38.94h9.28v3.51Zm24.37,0V21.55h4.21v20.9Zm32.59-20.9h3.83V41.31a1.11,1.11,0,0,1-.6,1,2.85,2.85,0,0,1-1.51.37,3.6,3.6,0,0,1-1.54-.26,2.79,2.79,0,0,1-1-.91L142.59,28.4v14h-3.89V23.1a1.41,1.41,0,0,1,.61-1.26,2.86,2.86,0,0,1,1.61-.41,3.23,3.23,0,0,1,1.71.35,5.32,5.32,0,0,1,1.27,1.4l8.75,12.23Zm32.15,3.54h-9.63V30h8.66v3.54h-8.66v5.3h9.37v3.57H171V23.25a1.57,1.57,0,0,1,.53-1.23,1.83,1.83,0,0,1,1.26-.47h12.06Zm26.53,17.36-1.76-5.18h-7.64l-1.76,5.18h-4.36l7.08-19.35a3.26,3.26,0,0,1,5.71,0l7.08,19.32Zm-8.2-8.72h5.24L205.75,26Zm33.35,9A9.93,9.93,0,0,1,229,39.9a10.74,10.74,0,0,1-2.75-7.76,10.91,10.91,0,0,1,2.93-8,10.4,10.4,0,0,1,7.76-3,10.29,10.29,0,0,1,5.4,1.35,8.08,8.08,0,0,1,3.26,3.54l-3.37,1.79a5.47,5.47,0,0,0-5.36-3.07,5.88,5.88,0,0,0-4.62,1.95A7.72,7.72,0,0,0,230.49,32a7.8,7.8,0,0,0,1.61,5.22,5.5,5.5,0,0,0,4.42,1.89,6.06,6.06,0,0,0,4.14-1.42,4.74,4.74,0,0,0,1.68-3.59h-5.3V30.83h9.45v2.31a9.17,9.17,0,0,1-2.81,7A10,10,0,0,1,236.49,42.77ZM274,25.09h-9.63V30H273v3.54h-8.66v5.3h9.37v3.57H260.16V23.25a1.57,1.57,0,0,1,.53-1.23,1.83,1.83,0,0,1,1.26-.47H274Z"/><path class="cls-1" d="M76,32a6,6,0,0,0-4.46,2l-.33-.13A44.59,44.59,0,0,0,64,31.71h0a12,12,0,0,0-24,0l-.34.07a44.43,44.43,0,0,0-6.9,2.08l-.33.13a6,6,0,1,0,1.39,2.68l0,0a41.34,41.34,0,0,1,6.43-1.94h0a12,12,0,0,0,23.36,0,41.43,41.43,0,0,1,6.43,1.93l0,0A6,6,0,1,0,76,32ZM28,41a3,3,0,1,1,3-3A3,3,0,0,1,28,41Zm24,0a9,9,0,1,1,9-9A9,9,0,0,1,52,41Zm24,0a3,3,0,1,1,3-3A3,3,0,0,1,76,41ZM56,32a4,4,0,1,1-4-4A4,4,0,0,1,56,32Z"/></g></svg>
